<?xml version="1.0" encoding="UTF-8"?>
<svg width="20px" height="20px" viewBox="0 0 20 20" version="1.1" xmlns="http://www.w3.org/2000/svg" xmlns:xlink="http://www.w3.org/1999/xlink">
    <!-- Generator: Sketch 62 (91390) - https://sketch.com -->
    <title>收益概览</title>
    <desc>Created with Sketch.</desc>
    <g id="页面-1" stroke="none" stroke-width="1" fill="none" fill-rule="evenodd">
        <g id="策略研究-查看日志" transform="translate(-73.000000, -170.000000)" fill-rule="nonzero">
            <g id="收益概览" transform="translate(73.000000, 170.000000)">
                <rect id="矩形" fill="#000000" opacity="0" x="0" y="0" width="20" height="20"></rect>
                <path d="M13.902439,13.5853659 C13.902439,13.8780488 14.195122,14.1463415 14.5609756,14.1463415 L18.902439,14.1463415 C19.2682927,14.1463415 19.5609756,13.902439 19.5609756,13.5853659 C19.5609756,13.2926829 19.2682927,13.0243902 18.902439,13.0243902 L14.5609756,13.0243902 C14.195122,13.0487805 13.902439,13.2926829 13.902439,13.5853659 L13.902439,13.5853659 Z M6.39024391,5.46341463 L10.7804878,5.46341463 C11.8292683,5.46341463 12.6585366,3.7317073 13,2.92682928 C13.1463415,2.60975611 13.195122,2.24390244 13.1219512,1.90243902 C13.0243902,1.34146342 12.6829268,0.951219512 11.5609756,0.926829277 C10.0487805,0.853658535 9.70731707,1.95121951 8.60975609,1.95121951 C7.48780488,1.95121951 6.95121951,1.07317072 5.58536586,0.902439023 C4.60975609,0.756097559 4.21951221,1.19512195 4.07317072,1.75609756 C3.97560975,2.14634146 4,2.58536586 4.1707317,2.95121951 C4.51219512,3.75609756 5.36585365,5.46341463 6.39024391,5.46341463 Z M19.3414634,15.2195122 L15,15.2195122 C14.6341463,15.2195122 14.3414634,15.4634146 14.3414634,15.7804878 C14.3414634,16.0731707 14.6341463,16.3414634 15,16.3414634 L19.3414634,16.3414634 C19.7073171,16.3414634 20,16.097561 20,15.7804878 C20,15.4634146 19.7073171,15.2195122 19.3414634,15.2195122 Z M18.4878049,17.5609756 L14.1219512,17.5609756 C13.7560976,17.5609756 13.4634146,17.804878 13.4634146,18.1219512 C13.4634146,18.4390244 13.7560976,18.6829268 14.1219512,18.6829268 L18.4634146,18.6829268 C18.8292683,18.6829268 19.1219512,18.4390244 19.1219512,18.1219512 C19.1219512,17.804878 18.8292683,17.5609756 18.4878049,17.5609756 Z M13.902439,16.9268293 C13.4146341,16.8292683 13.0243902,16.3902439 13.0243902,15.8536585 C13.0243902,15.3170732 13.3902439,14.8780488 13.902439,14.7804878 L13.902439,14.7560976 L13.5609756,14.7560976 L13.5609756,14.7317073 C13,14.6097561 12.5853658,14.0731707 12.5853659,13.4634146 C12.5853659,12.8292683 13,12.3170732 13.5609756,12.195122 L13.5609756,12.1707317 L16.3658537,12.1707317 C15.4634146,9.41463414 13.804878,6.36585365 10.9756098,6.36585365 L6.34146342,6.36585365 C1.26829268,6.36585365 0,16.4634146 0,16.4634146 C0,17.804878 1.07317072,19.1219512 2.39024391,19.1219512 L12.5121951,19.1219512 C12.3170732,18.902439 12.1707317,18.5853658 12.1707317,18.2439024 C12.1707317,17.6097561 12.6097561,17.097561 13.195122,16.9756098 L13.195122,16.9512195 L13.902439,16.9268293 Z M11.5365854,14.1219512 C11.8536585,14.1219512 12.1219512,14.3902439 12.097561,14.7317073 C12.0731707,15.0243903 11.804878,15.2439024 11.5365854,15.2439024 L9.26829268,15.2439024 L9.26829268,16.7073171 C9.26829268,17.0243902 9.02439023,17.2682927 8.70731707,17.2682927 C8.39024391,17.2682927 8.14634146,17.0243902 8.14634146,16.7073171 L8.14634146,15.2439024 L5.85365854,15.2439024 C5.53658537,15.2439024 5.29268293,15 5.29268293,14.6829268 C5.29268293,14.3658537 5.53658537,14.1219512 5.85365854,14.1219512 L8.14634146,14.1219512 L8.14634146,13.4146341 L5.85365854,13.4146341 C5.53658537,13.4146341 5.29268293,13.1707317 5.29268293,12.8536585 C5.29268293,12.5365854 5.53658537,12.2926829 5.85365854,12.2926829 L7.39024391,12.2926829 L5.80487805,9.46341463 C5.65853658,9.19512195 5.73170732,8.85365854 6,8.70731707 C6.26829268,8.56097561 6.60975609,8.63414635 6.75609756,8.90243902 L8.65853658,12.2926829 L8.75609756,12.2926829 L10.6585366,8.90243902 C10.804878,8.63414635 11.1463415,8.53658537 11.4146341,8.70731707 C11.6829268,8.85365854 11.7804878,9.19512195 11.6097561,9.46341463 L10.0243902,12.2926829 L11.4634146,12.2926829 C11.7804878,12.2926829 12.0243902,12.5365854 12.0243902,12.8536585 C12.0243902,13.1707317 11.7804878,13.4146341 11.4634146,13.4146341 L9.26829268,13.4146341 L9.26829268,14.1219512 L11.5365854,14.1219512 Z" id="形状" fill="#FFFFFF"></path>
            </g>
        </g>
    </g>
</svg>